G04 #@! TF.FileFunction,Legend,Top*
%FSLAX46Y46*%
G04 Gerber Fmt 4.6, Leading zero omitted, Abs format (unit mm)*
G04 Created by KiCad (PCBNEW 4.0.1-3.201512221402+6198~38~ubuntu15.04.1-stable) date Sat 16 Apr 2016 12:43:45 PM EDT*
%MOMM*%
G01*
G04 APERTURE LIST*
%ADD10C,0.100000*%
%ADD11C,1.016000*%
%ADD12C,1.270000*%
%ADD13C,2.540000*%
%ADD14C,0.254000*%
%ADD15C,0.150000*%
G04 APERTURE END LIST*
D10*
D11*
X163830000Y-78740000D02*
X166370000Y-78740000D01*
X157480000Y-77470000D02*
X157480000Y-80010000D01*
X156210000Y-78740000D02*
X158750000Y-78740000D01*
D12*
X163195000Y-81915000D02*
X159385000Y-85725000D01*
X159385000Y-81915000D02*
X163195000Y-85725000D01*
X167005000Y-85725000D02*
G75*
G03X167005000Y-81915000I-1905000J1905000D01*
G01*
X155575000Y-81915000D02*
G75*
G03X155575000Y-85725000I1905000J-1905000D01*
G01*
X155575000Y-85725000D02*
G75*
G03X159385000Y-85725000I1905000J1905000D01*
G01*
X159385000Y-81915000D02*
G75*
G03X155575000Y-81915000I-1905000J-1905000D01*
G01*
X163195000Y-85725000D02*
G75*
G03X167005000Y-85725000I1905000J1905000D01*
G01*
X167005000Y-81915000D02*
G75*
G03X163195000Y-81915000I-1905000J-1905000D01*
G01*
D13*
X197485000Y-58420000D02*
X197485000Y-73660000D01*
X209550000Y-58420000D02*
X209550000Y-73660000D01*
X221615000Y-58420000D02*
X221615000Y-73660000D01*
X197485000Y-58420000D02*
X221615000Y-58420000D01*
D14*
X186309000Y-80264000D02*
X186436000Y-81280000D01*
X181864000Y-81280000D02*
X181991000Y-80264000D01*
X186309000Y-80264000D02*
X181991000Y-80264000D01*
X181864000Y-81280000D02*
G75*
G03X186436000Y-81280000I2286000J0D01*
G01*
X121920000Y-58420000D02*
X134620000Y-58420000D01*
X134620000Y-58420000D02*
X134620000Y-76200000D01*
X134620000Y-76200000D02*
X121920000Y-76200000D01*
X121920000Y-76200000D02*
X121920000Y-58420000D01*
X135255000Y-58420000D02*
X147955000Y-58420000D01*
X147955000Y-58420000D02*
X147955000Y-76200000D01*
X147955000Y-76200000D02*
X135255000Y-76200000D01*
X135255000Y-76200000D02*
X135255000Y-58420000D01*
X148590000Y-58420000D02*
X161290000Y-58420000D01*
X161290000Y-58420000D02*
X161290000Y-76200000D01*
X161290000Y-76200000D02*
X148590000Y-76200000D01*
X148590000Y-76200000D02*
X148590000Y-58420000D01*
X161925000Y-58420000D02*
X174625000Y-58420000D01*
X174625000Y-58420000D02*
X174625000Y-76200000D01*
X174625000Y-76200000D02*
X161925000Y-76200000D01*
X161925000Y-76200000D02*
X161925000Y-58420000D01*
X175260000Y-58420000D02*
X187960000Y-58420000D01*
X187960000Y-58420000D02*
X187960000Y-76200000D01*
X187960000Y-76200000D02*
X175260000Y-76200000D01*
X175260000Y-76200000D02*
X175260000Y-58420000D01*
X147955000Y-97790000D02*
X147955000Y-101600000D01*
X147955000Y-101600000D02*
X122555000Y-101600000D01*
X122555000Y-101600000D02*
X122555000Y-91440000D01*
X122555000Y-91440000D02*
X147955000Y-91440000D01*
X147955000Y-91440000D02*
X147955000Y-95250000D01*
X146685000Y-96520000D02*
G75*
G03X147955000Y-97790000I1270000J0D01*
G01*
X147955000Y-95250000D02*
G75*
G03X146685000Y-96520000I0J-1270000D01*
G01*
X158115000Y-99695000D02*
X163195000Y-99695000D01*
X163195000Y-99695000D02*
X163195000Y-92075000D01*
X163195000Y-92075000D02*
X158115000Y-92075000D01*
X158115000Y-92075000D02*
X158115000Y-99695000D01*
X188849000Y-98044000D02*
X188976000Y-99060000D01*
X184404000Y-99060000D02*
X184531000Y-98044000D01*
X188849000Y-98044000D02*
X184531000Y-98044000D01*
X184404000Y-99060000D02*
G75*
G03X188976000Y-99060000I2286000J0D01*
G01*
X188214000Y-93599000D02*
X188341000Y-94615000D01*
X183769000Y-94615000D02*
X183896000Y-93599000D01*
X188214000Y-93599000D02*
X183896000Y-93599000D01*
X183769000Y-94615000D02*
G75*
G03X188341000Y-94615000I2286000J0D01*
G01*
X187579000Y-89154000D02*
X187706000Y-90170000D01*
X183134000Y-90170000D02*
X183261000Y-89154000D01*
X187579000Y-89154000D02*
X183261000Y-89154000D01*
X183134000Y-90170000D02*
G75*
G03X187706000Y-90170000I2286000J0D01*
G01*
X186944000Y-84709000D02*
X187071000Y-85725000D01*
X182499000Y-85725000D02*
X182626000Y-84709000D01*
X186944000Y-84709000D02*
X182626000Y-84709000D01*
X182499000Y-85725000D02*
G75*
G03X187071000Y-85725000I2286000J0D01*
G01*
X150495000Y-85090000D02*
X150495000Y-88900000D01*
X150495000Y-88900000D02*
X130175000Y-88900000D01*
X130175000Y-88900000D02*
X130175000Y-78740000D01*
X130175000Y-78740000D02*
X150495000Y-78740000D01*
X150495000Y-78740000D02*
X150495000Y-82550000D01*
X150495000Y-82550000D02*
G75*
G03X149225000Y-83820000I0J-1270000D01*
G01*
X149225000Y-83820000D02*
G75*
G03X150495000Y-85090000I1270000J0D01*
G01*
X178435000Y-98425000D02*
X177165000Y-99695000D01*
X177165000Y-99695000D02*
X172085000Y-99695000D01*
X172085000Y-99695000D02*
X170815000Y-98425000D01*
X178435000Y-81915000D02*
X178435000Y-98425000D01*
X178435000Y-81915000D02*
X175895000Y-79375000D01*
X175895000Y-79375000D02*
X173355000Y-79375000D01*
X173355000Y-79375000D02*
X170815000Y-81915000D01*
X170815000Y-81915000D02*
X170815000Y-98425000D01*
D15*
X151130000Y-97790000D02*
X151130000Y-92710000D01*
X151130000Y-92710000D02*
X153670000Y-92710000D01*
X153670000Y-92710000D02*
X153670000Y-97790000D01*
X153670000Y-97790000D02*
X151130000Y-97790000D01*
X152400000Y-97790000D02*
X152400000Y-99060000D01*
X152400000Y-92710000D02*
X152400000Y-91440000D01*
X167005000Y-97790000D02*
X167005000Y-92710000D01*
X167005000Y-92710000D02*
X169545000Y-92710000D01*
X169545000Y-92710000D02*
X169545000Y-97790000D01*
X169545000Y-97790000D02*
X167005000Y-97790000D01*
X168275000Y-97790000D02*
X168275000Y-99060000D01*
X168275000Y-92710000D02*
X168275000Y-91440000D01*
X187229762Y-83732619D02*
X187134524Y-83685000D01*
X187039286Y-83589762D01*
X186896429Y-83446905D01*
X186801190Y-83399286D01*
X186705952Y-83399286D01*
X186753571Y-83637381D02*
X186658333Y-83589762D01*
X186563095Y-83494524D01*
X186515476Y-83304048D01*
X186515476Y-82970714D01*
X186563095Y-82780238D01*
X186658333Y-82685000D01*
X186753571Y-82637381D01*
X186944048Y-82637381D01*
X187039286Y-82685000D01*
X187134524Y-82780238D01*
X187182143Y-82970714D01*
X187182143Y-83304048D01*
X187134524Y-83494524D01*
X187039286Y-83589762D01*
X186944048Y-83637381D01*
X186753571Y-83637381D01*
X188086905Y-82637381D02*
X187610714Y-82637381D01*
X187563095Y-83113571D01*
X187610714Y-83065952D01*
X187705952Y-83018333D01*
X187944048Y-83018333D01*
X188039286Y-83065952D01*
X188086905Y-83113571D01*
X188134524Y-83208810D01*
X188134524Y-83446905D01*
X188086905Y-83542143D01*
X188039286Y-83589762D01*
X187944048Y-83637381D01*
X187705952Y-83637381D01*
X187610714Y-83589762D01*
X187563095Y-83542143D01*
X127531905Y-67762381D02*
X127531905Y-66762381D01*
X127770000Y-66762381D01*
X127912858Y-66810000D01*
X128008096Y-66905238D01*
X128055715Y-67000476D01*
X128103334Y-67190952D01*
X128103334Y-67333810D01*
X128055715Y-67524286D01*
X128008096Y-67619524D01*
X127912858Y-67714762D01*
X127770000Y-67762381D01*
X127531905Y-67762381D01*
X129055715Y-67762381D02*
X128484286Y-67762381D01*
X128770000Y-67762381D02*
X128770000Y-66762381D01*
X128674762Y-66905238D01*
X128579524Y-67000476D01*
X128484286Y-67048095D01*
X140866905Y-67762381D02*
X140866905Y-66762381D01*
X141105000Y-66762381D01*
X141247858Y-66810000D01*
X141343096Y-66905238D01*
X141390715Y-67000476D01*
X141438334Y-67190952D01*
X141438334Y-67333810D01*
X141390715Y-67524286D01*
X141343096Y-67619524D01*
X141247858Y-67714762D01*
X141105000Y-67762381D01*
X140866905Y-67762381D01*
X141819286Y-66857619D02*
X141866905Y-66810000D01*
X141962143Y-66762381D01*
X142200239Y-66762381D01*
X142295477Y-66810000D01*
X142343096Y-66857619D01*
X142390715Y-66952857D01*
X142390715Y-67048095D01*
X142343096Y-67190952D01*
X141771667Y-67762381D01*
X142390715Y-67762381D01*
X154201905Y-67762381D02*
X154201905Y-66762381D01*
X154440000Y-66762381D01*
X154582858Y-66810000D01*
X154678096Y-66905238D01*
X154725715Y-67000476D01*
X154773334Y-67190952D01*
X154773334Y-67333810D01*
X154725715Y-67524286D01*
X154678096Y-67619524D01*
X154582858Y-67714762D01*
X154440000Y-67762381D01*
X154201905Y-67762381D01*
X155106667Y-66762381D02*
X155725715Y-66762381D01*
X155392381Y-67143333D01*
X155535239Y-67143333D01*
X155630477Y-67190952D01*
X155678096Y-67238571D01*
X155725715Y-67333810D01*
X155725715Y-67571905D01*
X155678096Y-67667143D01*
X155630477Y-67714762D01*
X155535239Y-67762381D01*
X155249524Y-67762381D01*
X155154286Y-67714762D01*
X155106667Y-67667143D01*
X167536905Y-67762381D02*
X167536905Y-66762381D01*
X167775000Y-66762381D01*
X167917858Y-66810000D01*
X168013096Y-66905238D01*
X168060715Y-67000476D01*
X168108334Y-67190952D01*
X168108334Y-67333810D01*
X168060715Y-67524286D01*
X168013096Y-67619524D01*
X167917858Y-67714762D01*
X167775000Y-67762381D01*
X167536905Y-67762381D01*
X168965477Y-67095714D02*
X168965477Y-67762381D01*
X168727381Y-66714762D02*
X168489286Y-67429048D01*
X169108334Y-67429048D01*
X180871905Y-67762381D02*
X180871905Y-66762381D01*
X181110000Y-66762381D01*
X181252858Y-66810000D01*
X181348096Y-66905238D01*
X181395715Y-67000476D01*
X181443334Y-67190952D01*
X181443334Y-67333810D01*
X181395715Y-67524286D01*
X181348096Y-67619524D01*
X181252858Y-67714762D01*
X181110000Y-67762381D01*
X180871905Y-67762381D01*
X182348096Y-66762381D02*
X181871905Y-66762381D01*
X181824286Y-67238571D01*
X181871905Y-67190952D01*
X181967143Y-67143333D01*
X182205239Y-67143333D01*
X182300477Y-67190952D01*
X182348096Y-67238571D01*
X182395715Y-67333810D01*
X182395715Y-67571905D01*
X182348096Y-67667143D01*
X182300477Y-67714762D01*
X182205239Y-67762381D01*
X181967143Y-67762381D01*
X181871905Y-67714762D01*
X181824286Y-67667143D01*
X134278810Y-98242381D02*
X134278810Y-97242381D01*
X135326429Y-98147143D02*
X135278810Y-98194762D01*
X135135953Y-98242381D01*
X135040715Y-98242381D01*
X134897857Y-98194762D01*
X134802619Y-98099524D01*
X134755000Y-98004286D01*
X134707381Y-97813810D01*
X134707381Y-97670952D01*
X134755000Y-97480476D01*
X134802619Y-97385238D01*
X134897857Y-97290000D01*
X135040715Y-97242381D01*
X135135953Y-97242381D01*
X135278810Y-97290000D01*
X135326429Y-97337619D01*
X136278810Y-98242381D02*
X135707381Y-98242381D01*
X135993095Y-98242381D02*
X135993095Y-97242381D01*
X135897857Y-97385238D01*
X135802619Y-97480476D01*
X135707381Y-97528095D01*
X164917381Y-95353095D02*
X163917381Y-95353095D01*
X163917381Y-94972142D01*
X163965000Y-94876904D01*
X164012619Y-94829285D01*
X164107857Y-94781666D01*
X164250714Y-94781666D01*
X164345952Y-94829285D01*
X164393571Y-94876904D01*
X164441190Y-94972142D01*
X164441190Y-95353095D01*
X164917381Y-93829285D02*
X164917381Y-94400714D01*
X164917381Y-94115000D02*
X163917381Y-94115000D01*
X164060238Y-94210238D01*
X164155476Y-94305476D01*
X164203095Y-94400714D01*
D14*
X165039524Y-98062143D02*
X165039524Y-98787857D01*
X165039524Y-98425000D02*
X163769524Y-98425000D01*
X163950952Y-98545952D01*
X164071905Y-98666905D01*
X164132381Y-98787857D01*
D15*
X189769762Y-101512619D02*
X189674524Y-101465000D01*
X189579286Y-101369762D01*
X189436429Y-101226905D01*
X189341190Y-101179286D01*
X189245952Y-101179286D01*
X189293571Y-101417381D02*
X189198333Y-101369762D01*
X189103095Y-101274524D01*
X189055476Y-101084048D01*
X189055476Y-100750714D01*
X189103095Y-100560238D01*
X189198333Y-100465000D01*
X189293571Y-100417381D01*
X189484048Y-100417381D01*
X189579286Y-100465000D01*
X189674524Y-100560238D01*
X189722143Y-100750714D01*
X189722143Y-101084048D01*
X189674524Y-101274524D01*
X189579286Y-101369762D01*
X189484048Y-101417381D01*
X189293571Y-101417381D01*
X190674524Y-101417381D02*
X190103095Y-101417381D01*
X190388809Y-101417381D02*
X190388809Y-100417381D01*
X190293571Y-100560238D01*
X190198333Y-100655476D01*
X190103095Y-100703095D01*
X189134762Y-97067619D02*
X189039524Y-97020000D01*
X188944286Y-96924762D01*
X188801429Y-96781905D01*
X188706190Y-96734286D01*
X188610952Y-96734286D01*
X188658571Y-96972381D02*
X188563333Y-96924762D01*
X188468095Y-96829524D01*
X188420476Y-96639048D01*
X188420476Y-96305714D01*
X188468095Y-96115238D01*
X188563333Y-96020000D01*
X188658571Y-95972381D01*
X188849048Y-95972381D01*
X188944286Y-96020000D01*
X189039524Y-96115238D01*
X189087143Y-96305714D01*
X189087143Y-96639048D01*
X189039524Y-96829524D01*
X188944286Y-96924762D01*
X188849048Y-96972381D01*
X188658571Y-96972381D01*
X189468095Y-96067619D02*
X189515714Y-96020000D01*
X189610952Y-95972381D01*
X189849048Y-95972381D01*
X189944286Y-96020000D01*
X189991905Y-96067619D01*
X190039524Y-96162857D01*
X190039524Y-96258095D01*
X189991905Y-96400952D01*
X189420476Y-96972381D01*
X190039524Y-96972381D01*
X188499762Y-92622619D02*
X188404524Y-92575000D01*
X188309286Y-92479762D01*
X188166429Y-92336905D01*
X188071190Y-92289286D01*
X187975952Y-92289286D01*
X188023571Y-92527381D02*
X187928333Y-92479762D01*
X187833095Y-92384524D01*
X187785476Y-92194048D01*
X187785476Y-91860714D01*
X187833095Y-91670238D01*
X187928333Y-91575000D01*
X188023571Y-91527381D01*
X188214048Y-91527381D01*
X188309286Y-91575000D01*
X188404524Y-91670238D01*
X188452143Y-91860714D01*
X188452143Y-92194048D01*
X188404524Y-92384524D01*
X188309286Y-92479762D01*
X188214048Y-92527381D01*
X188023571Y-92527381D01*
X188785476Y-91527381D02*
X189404524Y-91527381D01*
X189071190Y-91908333D01*
X189214048Y-91908333D01*
X189309286Y-91955952D01*
X189356905Y-92003571D01*
X189404524Y-92098810D01*
X189404524Y-92336905D01*
X189356905Y-92432143D01*
X189309286Y-92479762D01*
X189214048Y-92527381D01*
X188928333Y-92527381D01*
X188833095Y-92479762D01*
X188785476Y-92432143D01*
X187864762Y-88177619D02*
X187769524Y-88130000D01*
X187674286Y-88034762D01*
X187531429Y-87891905D01*
X187436190Y-87844286D01*
X187340952Y-87844286D01*
X187388571Y-88082381D02*
X187293333Y-88034762D01*
X187198095Y-87939524D01*
X187150476Y-87749048D01*
X187150476Y-87415714D01*
X187198095Y-87225238D01*
X187293333Y-87130000D01*
X187388571Y-87082381D01*
X187579048Y-87082381D01*
X187674286Y-87130000D01*
X187769524Y-87225238D01*
X187817143Y-87415714D01*
X187817143Y-87749048D01*
X187769524Y-87939524D01*
X187674286Y-88034762D01*
X187579048Y-88082381D01*
X187388571Y-88082381D01*
X188674286Y-87415714D02*
X188674286Y-88082381D01*
X188436190Y-87034762D02*
X188198095Y-87749048D01*
X188817143Y-87749048D01*
X139668334Y-83772381D02*
X139335000Y-83296190D01*
X139096905Y-83772381D02*
X139096905Y-82772381D01*
X139477858Y-82772381D01*
X139573096Y-82820000D01*
X139620715Y-82867619D01*
X139668334Y-82962857D01*
X139668334Y-83105714D01*
X139620715Y-83200952D01*
X139573096Y-83248571D01*
X139477858Y-83296190D01*
X139096905Y-83296190D01*
X140096905Y-83772381D02*
X140096905Y-82772381D01*
X140477858Y-82772381D01*
X140573096Y-82820000D01*
X140620715Y-82867619D01*
X140668334Y-82962857D01*
X140668334Y-83105714D01*
X140620715Y-83200952D01*
X140573096Y-83248571D01*
X140477858Y-83296190D01*
X140096905Y-83296190D01*
X141620715Y-83772381D02*
X141049286Y-83772381D01*
X141335000Y-83772381D02*
X141335000Y-82772381D01*
X141239762Y-82915238D01*
X141144524Y-83010476D01*
X141049286Y-83058095D01*
X175029762Y-93408333D02*
X175077381Y-93265476D01*
X175077381Y-93027380D01*
X175029762Y-92932142D01*
X174982143Y-92884523D01*
X174886905Y-92836904D01*
X174791667Y-92836904D01*
X174696429Y-92884523D01*
X174648810Y-92932142D01*
X174601190Y-93027380D01*
X174553571Y-93217857D01*
X174505952Y-93313095D01*
X174458333Y-93360714D01*
X174363095Y-93408333D01*
X174267857Y-93408333D01*
X174172619Y-93360714D01*
X174125000Y-93313095D01*
X174077381Y-93217857D01*
X174077381Y-92979761D01*
X174125000Y-92836904D01*
X174077381Y-92503571D02*
X175077381Y-92265476D01*
X174363095Y-92074999D01*
X175077381Y-91884523D01*
X174077381Y-91646428D01*
X175077381Y-90741666D02*
X175077381Y-91313095D01*
X175077381Y-91027381D02*
X174077381Y-91027381D01*
X174220238Y-91122619D01*
X174315476Y-91217857D01*
X174363095Y-91313095D01*
X152852381Y-95416666D02*
X152376190Y-95750000D01*
X152852381Y-95988095D02*
X151852381Y-95988095D01*
X151852381Y-95607142D01*
X151900000Y-95511904D01*
X151947619Y-95464285D01*
X152042857Y-95416666D01*
X152185714Y-95416666D01*
X152280952Y-95464285D01*
X152328571Y-95511904D01*
X152376190Y-95607142D01*
X152376190Y-95988095D01*
X152852381Y-94464285D02*
X152852381Y-95035714D01*
X152852381Y-94750000D02*
X151852381Y-94750000D01*
X151995238Y-94845238D01*
X152090476Y-94940476D01*
X152138095Y-95035714D01*
X168727381Y-95416666D02*
X168251190Y-95750000D01*
X168727381Y-95988095D02*
X167727381Y-95988095D01*
X167727381Y-95607142D01*
X167775000Y-95511904D01*
X167822619Y-95464285D01*
X167917857Y-95416666D01*
X168060714Y-95416666D01*
X168155952Y-95464285D01*
X168203571Y-95511904D01*
X168251190Y-95607142D01*
X168251190Y-95988095D01*
X167822619Y-95035714D02*
X167775000Y-94988095D01*
X167727381Y-94892857D01*
X167727381Y-94654761D01*
X167775000Y-94559523D01*
X167822619Y-94511904D01*
X167917857Y-94464285D01*
X168013095Y-94464285D01*
X168155952Y-94511904D01*
X168727381Y-95083333D01*
X168727381Y-94464285D01*
M02*
