G04 #@! TF.FileFunction,Soldermask,Top*
%FSLAX46Y46*%
G04 Gerber Fmt 4.6, Leading zero omitted, Abs format (unit mm)*
G04 Created by KiCad (PCBNEW 4.0.1-3.201512221402+6198~38~ubuntu15.04.1-stable) date Sat 16 Apr 2016 12:43:45 PM EDT*
%MOMM*%
G01*
G04 APERTURE LIST*
%ADD10C,0.100000*%
%ADD11C,3.575000*%
%ADD12C,2.178000*%
%ADD13C,1.924000*%
%ADD14C,2.305000*%
%ADD15C,5.480000*%
%ADD16C,1.416000*%
%ADD17C,2.398980*%
G04 APERTURE END LIST*
D10*
D11*
X209550000Y-58674000D03*
X209550000Y-66294000D03*
X209550000Y-93726000D03*
X209550000Y-101346000D03*
D12*
X186690000Y-81280000D03*
X184150000Y-81280000D03*
X181610000Y-81280000D03*
D11*
X197485000Y-101346000D03*
X197485000Y-93726000D03*
X197485000Y-66294000D03*
X197485000Y-58674000D03*
X221615000Y-101346000D03*
X221615000Y-93726000D03*
X221615000Y-66294000D03*
X221615000Y-58674000D03*
D13*
X123190000Y-74930000D03*
X125730000Y-74930000D03*
X128270000Y-74930000D03*
X130810000Y-74930000D03*
X133350000Y-74930000D03*
X133350000Y-59690000D03*
X130810000Y-59690000D03*
X128270000Y-59690000D03*
X125730000Y-59690000D03*
X123190000Y-59690000D03*
X136525000Y-74930000D03*
X139065000Y-74930000D03*
X141605000Y-74930000D03*
X144145000Y-74930000D03*
X146685000Y-74930000D03*
X146685000Y-59690000D03*
X144145000Y-59690000D03*
X141605000Y-59690000D03*
X139065000Y-59690000D03*
X136525000Y-59690000D03*
X149860000Y-74930000D03*
X152400000Y-74930000D03*
X154940000Y-74930000D03*
X157480000Y-74930000D03*
X160020000Y-74930000D03*
X160020000Y-59690000D03*
X157480000Y-59690000D03*
X154940000Y-59690000D03*
X152400000Y-59690000D03*
X149860000Y-59690000D03*
X163195000Y-74930000D03*
X165735000Y-74930000D03*
X168275000Y-74930000D03*
X170815000Y-74930000D03*
X173355000Y-74930000D03*
X173355000Y-59690000D03*
X170815000Y-59690000D03*
X168275000Y-59690000D03*
X165735000Y-59690000D03*
X163195000Y-59690000D03*
X176530000Y-74930000D03*
X179070000Y-74930000D03*
X181610000Y-74930000D03*
X184150000Y-74930000D03*
X186690000Y-74930000D03*
X186690000Y-59690000D03*
X184150000Y-59690000D03*
X181610000Y-59690000D03*
X179070000Y-59690000D03*
X176530000Y-59690000D03*
D14*
X146685000Y-92710000D03*
X144145000Y-92710000D03*
X141605000Y-92710000D03*
X139065000Y-92710000D03*
X136525000Y-92710000D03*
X133985000Y-92710000D03*
X131445000Y-92710000D03*
X128905000Y-92710000D03*
X126365000Y-92710000D03*
X123825000Y-92710000D03*
X123825000Y-100330000D03*
X126365000Y-100330000D03*
X128905000Y-100330000D03*
X131445000Y-100330000D03*
X133985000Y-100330000D03*
X136525000Y-100330000D03*
X139065000Y-100330000D03*
X141605000Y-100330000D03*
X144145000Y-100330000D03*
X146685000Y-100330000D03*
X161925000Y-98425000D03*
X161925000Y-95885000D03*
X161925000Y-93345000D03*
X159385000Y-93345000D03*
X159385000Y-95885000D03*
X159385000Y-98425000D03*
D12*
X189230000Y-99060000D03*
X186690000Y-99060000D03*
X184150000Y-99060000D03*
X188595000Y-94615000D03*
X186055000Y-94615000D03*
X183515000Y-94615000D03*
X187960000Y-90170000D03*
X185420000Y-90170000D03*
X182880000Y-90170000D03*
X187325000Y-85725000D03*
X184785000Y-85725000D03*
X182245000Y-85725000D03*
D14*
X149225000Y-80010000D03*
X146685000Y-80010000D03*
X144145000Y-80010000D03*
X141605000Y-80010000D03*
X139065000Y-80010000D03*
X136525000Y-80010000D03*
X133985000Y-80010000D03*
X131445000Y-80010000D03*
X131445000Y-87630000D03*
X133985000Y-87630000D03*
X136525000Y-87630000D03*
X139065000Y-87630000D03*
X141605000Y-87630000D03*
X144145000Y-87630000D03*
X146685000Y-87630000D03*
X149225000Y-87630000D03*
D15*
X174625000Y-85725000D03*
D14*
X174625000Y-80925162D03*
D16*
X130810000Y-64770000D03*
X133350000Y-66040000D03*
X130810000Y-69850000D03*
X125730000Y-71120000D03*
X123190000Y-72390000D03*
X125730000Y-63500000D03*
X123190000Y-62230000D03*
X133350000Y-68580000D03*
X144145000Y-64770000D03*
X146685000Y-66040000D03*
X144145000Y-69850000D03*
X139065000Y-71120000D03*
X136525000Y-72390000D03*
X139065000Y-63500000D03*
X136525000Y-62230000D03*
X146685000Y-68580000D03*
X157480000Y-64770000D03*
X160020000Y-66040000D03*
X157480000Y-69850000D03*
X152400000Y-71120000D03*
X149860000Y-72390000D03*
X152400000Y-63500000D03*
X149860000Y-62230000D03*
X160020000Y-68580000D03*
X170815000Y-64770000D03*
X173355000Y-66040000D03*
X170815000Y-69850000D03*
X165735000Y-71120000D03*
X163195000Y-72390000D03*
X165735000Y-63500000D03*
X163195000Y-62230000D03*
X173355000Y-68580000D03*
X184150000Y-64770000D03*
X186690000Y-66040000D03*
X184150000Y-69850000D03*
X179070000Y-71120000D03*
X176530000Y-72390000D03*
X179070000Y-63500000D03*
X176530000Y-62230000D03*
X186690000Y-68580000D03*
D17*
X152400000Y-100330000D03*
X152400000Y-90170000D03*
X168275000Y-100330000D03*
X168275000Y-90170000D03*
M02*
