G04 #@! TF.FileFunction,Copper,L1,Top,Signal*
%FSLAX46Y46*%
G04 Gerber Fmt 4.6, Leading zero omitted, Abs format (unit mm)*
G04 Created by KiCad (PCBNEW 4.0.1-3.201512221402+6198~38~ubuntu15.04.1-stable) date Sat 16 Apr 2016 12:43:45 PM EDT*
%MOMM*%
G01*
G04 APERTURE LIST*
%ADD10C,0.100000*%
%ADD11C,3.175000*%
%ADD12C,1.778000*%
%ADD13C,1.524000*%
%ADD14C,1.905000*%
%ADD15C,5.080000*%
%ADD16C,1.016000*%
%ADD17C,1.998980*%
%ADD18C,0.304800*%
%ADD19C,0.508000*%
%ADD20C,0.787400*%
G04 APERTURE END LIST*
D10*
D11*
X209550000Y-58674000D03*
X209550000Y-66294000D03*
X209550000Y-93726000D03*
X209550000Y-101346000D03*
D12*
X186690000Y-81280000D03*
X184150000Y-81280000D03*
X181610000Y-81280000D03*
D11*
X197485000Y-101346000D03*
X197485000Y-93726000D03*
X197485000Y-66294000D03*
X197485000Y-58674000D03*
X221615000Y-101346000D03*
X221615000Y-93726000D03*
X221615000Y-66294000D03*
X221615000Y-58674000D03*
D13*
X123190000Y-74930000D03*
X125730000Y-74930000D03*
X128270000Y-74930000D03*
X130810000Y-74930000D03*
X133350000Y-74930000D03*
X133350000Y-59690000D03*
X130810000Y-59690000D03*
X128270000Y-59690000D03*
X125730000Y-59690000D03*
X123190000Y-59690000D03*
X136525000Y-74930000D03*
X139065000Y-74930000D03*
X141605000Y-74930000D03*
X144145000Y-74930000D03*
X146685000Y-74930000D03*
X146685000Y-59690000D03*
X144145000Y-59690000D03*
X141605000Y-59690000D03*
X139065000Y-59690000D03*
X136525000Y-59690000D03*
X149860000Y-74930000D03*
X152400000Y-74930000D03*
X154940000Y-74930000D03*
X157480000Y-74930000D03*
X160020000Y-74930000D03*
X160020000Y-59690000D03*
X157480000Y-59690000D03*
X154940000Y-59690000D03*
X152400000Y-59690000D03*
X149860000Y-59690000D03*
X163195000Y-74930000D03*
X165735000Y-74930000D03*
X168275000Y-74930000D03*
X170815000Y-74930000D03*
X173355000Y-74930000D03*
X173355000Y-59690000D03*
X170815000Y-59690000D03*
X168275000Y-59690000D03*
X165735000Y-59690000D03*
X163195000Y-59690000D03*
X176530000Y-74930000D03*
X179070000Y-74930000D03*
X181610000Y-74930000D03*
X184150000Y-74930000D03*
X186690000Y-74930000D03*
X186690000Y-59690000D03*
X184150000Y-59690000D03*
X181610000Y-59690000D03*
X179070000Y-59690000D03*
X176530000Y-59690000D03*
D14*
X146685000Y-92710000D03*
X144145000Y-92710000D03*
X141605000Y-92710000D03*
X139065000Y-92710000D03*
X136525000Y-92710000D03*
X133985000Y-92710000D03*
X131445000Y-92710000D03*
X128905000Y-92710000D03*
X126365000Y-92710000D03*
X123825000Y-92710000D03*
X123825000Y-100330000D03*
X126365000Y-100330000D03*
X128905000Y-100330000D03*
X131445000Y-100330000D03*
X133985000Y-100330000D03*
X136525000Y-100330000D03*
X139065000Y-100330000D03*
X141605000Y-100330000D03*
X144145000Y-100330000D03*
X146685000Y-100330000D03*
X161925000Y-98425000D03*
X161925000Y-95885000D03*
X161925000Y-93345000D03*
X159385000Y-93345000D03*
X159385000Y-95885000D03*
X159385000Y-98425000D03*
D12*
X189230000Y-99060000D03*
X186690000Y-99060000D03*
X184150000Y-99060000D03*
X188595000Y-94615000D03*
X186055000Y-94615000D03*
X183515000Y-94615000D03*
X187960000Y-90170000D03*
X185420000Y-90170000D03*
X182880000Y-90170000D03*
X187325000Y-85725000D03*
X184785000Y-85725000D03*
X182245000Y-85725000D03*
D14*
X149225000Y-80010000D03*
X146685000Y-80010000D03*
X144145000Y-80010000D03*
X141605000Y-80010000D03*
X139065000Y-80010000D03*
X136525000Y-80010000D03*
X133985000Y-80010000D03*
X131445000Y-80010000D03*
X131445000Y-87630000D03*
X133985000Y-87630000D03*
X136525000Y-87630000D03*
X139065000Y-87630000D03*
X141605000Y-87630000D03*
X144145000Y-87630000D03*
X146685000Y-87630000D03*
X149225000Y-87630000D03*
D15*
X174625000Y-85725000D03*
D14*
X174625000Y-80925162D03*
D16*
X130810000Y-64770000D03*
X133350000Y-66040000D03*
X130810000Y-69850000D03*
X125730000Y-71120000D03*
X123190000Y-72390000D03*
X125730000Y-63500000D03*
X123190000Y-62230000D03*
X133350000Y-68580000D03*
X144145000Y-64770000D03*
X146685000Y-66040000D03*
X144145000Y-69850000D03*
X139065000Y-71120000D03*
X136525000Y-72390000D03*
X139065000Y-63500000D03*
X136525000Y-62230000D03*
X146685000Y-68580000D03*
X157480000Y-64770000D03*
X160020000Y-66040000D03*
X157480000Y-69850000D03*
X152400000Y-71120000D03*
X149860000Y-72390000D03*
X152400000Y-63500000D03*
X149860000Y-62230000D03*
X160020000Y-68580000D03*
X170815000Y-64770000D03*
X173355000Y-66040000D03*
X170815000Y-69850000D03*
X165735000Y-71120000D03*
X163195000Y-72390000D03*
X165735000Y-63500000D03*
X163195000Y-62230000D03*
X173355000Y-68580000D03*
X184150000Y-64770000D03*
X186690000Y-66040000D03*
X184150000Y-69850000D03*
X179070000Y-71120000D03*
X176530000Y-72390000D03*
X179070000Y-63500000D03*
X176530000Y-62230000D03*
X186690000Y-68580000D03*
D17*
X152400000Y-100330000D03*
X152400000Y-90170000D03*
X168275000Y-100330000D03*
X168275000Y-90170000D03*
D18*
X149860000Y-72390000D02*
X149860000Y-74930000D01*
X163195000Y-72390000D02*
X163195000Y-74930000D01*
X176530000Y-72390000D02*
X176530000Y-74930000D01*
X136525000Y-72390000D02*
X136525000Y-74930000D01*
X123190000Y-72390000D02*
X123190000Y-74930000D01*
X152400000Y-71120000D02*
X152400000Y-74930000D01*
X165735000Y-71120000D02*
X165735000Y-74930000D01*
X179070000Y-71120000D02*
X179070000Y-74930000D01*
X139065000Y-71120000D02*
X139065000Y-74930000D01*
X125730000Y-71120000D02*
X125730000Y-74930000D01*
X139065000Y-74930000D02*
X139065000Y-75438000D01*
X139065000Y-75438000D02*
X141605000Y-77978000D01*
X141605000Y-77978000D02*
X141605000Y-80010000D01*
D19*
X128270000Y-59690000D02*
X128270000Y-74930000D01*
X189230000Y-99060000D02*
X191389000Y-96901000D01*
X128270000Y-57277000D02*
X128270000Y-59690000D01*
X130429000Y-55118000D02*
X128270000Y-57277000D01*
X188468000Y-55118000D02*
X130429000Y-55118000D01*
X191897000Y-58547000D02*
X188468000Y-55118000D01*
X191897000Y-96393000D02*
X191897000Y-58547000D01*
X191389000Y-96901000D02*
X191897000Y-96393000D01*
D18*
X157480000Y-69850000D02*
X157480000Y-74930000D01*
X170815000Y-69850000D02*
X170815000Y-74930000D01*
X184150000Y-69850000D02*
X184150000Y-74930000D01*
X144145000Y-69850000D02*
X144145000Y-74930000D01*
X130810000Y-69850000D02*
X130810000Y-74930000D01*
X144145000Y-74930000D02*
X144145000Y-80010000D01*
X160020000Y-68580000D02*
X160020000Y-74930000D01*
X173355000Y-68580000D02*
X173355000Y-74930000D01*
X186690000Y-68580000D02*
X186690000Y-74930000D01*
X146685000Y-68580000D02*
X146685000Y-74930000D01*
X133350000Y-68580000D02*
X133350000Y-74930000D01*
X133350000Y-74930000D02*
X131445000Y-76835000D01*
X131445000Y-76835000D02*
X131445000Y-80010000D01*
X146685000Y-80010000D02*
X146685000Y-78359000D01*
X148209000Y-67564000D02*
X146685000Y-66040000D01*
X148209000Y-76835000D02*
X148209000Y-67564000D01*
X146685000Y-78359000D02*
X148209000Y-76835000D01*
X186690000Y-59690000D02*
X186690000Y-66040000D01*
X173355000Y-59690000D02*
X173355000Y-66040000D01*
X160020000Y-59690000D02*
X160020000Y-66040000D01*
X146685000Y-59690000D02*
X146685000Y-66040000D01*
X133350000Y-59690000D02*
X133350000Y-66040000D01*
X149225000Y-80010000D02*
X158877000Y-80010000D01*
X157480000Y-65786000D02*
X157480000Y-64770000D01*
X159004000Y-67310000D02*
X157480000Y-65786000D01*
X160655000Y-67310000D02*
X159004000Y-67310000D01*
X161671000Y-68326000D02*
X160655000Y-67310000D01*
X161671000Y-77216000D02*
X161671000Y-68326000D01*
X158877000Y-80010000D02*
X161671000Y-77216000D01*
X184150000Y-59690000D02*
X184150000Y-64770000D01*
X170815000Y-59690000D02*
X170815000Y-64770000D01*
X157480000Y-59690000D02*
X157480000Y-64770000D01*
X144145000Y-59690000D02*
X144145000Y-64770000D01*
X130810000Y-59690000D02*
X130810000Y-64770000D01*
X136525000Y-80010000D02*
X136525000Y-78486000D01*
X137795000Y-64770000D02*
X139065000Y-63500000D01*
X137795000Y-77216000D02*
X137795000Y-64770000D01*
X136525000Y-78486000D02*
X137795000Y-77216000D01*
X179070000Y-59690000D02*
X179070000Y-63500000D01*
X165735000Y-59690000D02*
X165735000Y-63500000D01*
X152400000Y-59690000D02*
X152400000Y-63500000D01*
X139065000Y-59690000D02*
X139065000Y-63500000D01*
X125730000Y-59690000D02*
X125730000Y-63500000D01*
X133985000Y-80010000D02*
X133985000Y-77978000D01*
X135001000Y-63754000D02*
X136525000Y-62230000D01*
X135001000Y-76962000D02*
X135001000Y-63754000D01*
X133985000Y-77978000D02*
X135001000Y-76962000D01*
X176530000Y-59690000D02*
X176530000Y-62230000D01*
X163195000Y-59690000D02*
X163195000Y-62230000D01*
X149860000Y-59690000D02*
X149860000Y-62230000D01*
X136525000Y-59690000D02*
X136525000Y-62230000D01*
X123190000Y-59690000D02*
X123190000Y-62230000D01*
D19*
X141605000Y-59690000D02*
X141605000Y-74930000D01*
X188595000Y-94615000D02*
X190881000Y-92329000D01*
X141605000Y-57912000D02*
X141605000Y-59690000D01*
X143510000Y-56007000D02*
X141605000Y-57912000D01*
X188087000Y-56007000D02*
X143510000Y-56007000D01*
X191008000Y-58928000D02*
X188087000Y-56007000D01*
X191008000Y-92202000D02*
X191008000Y-58928000D01*
X190881000Y-92329000D02*
X191008000Y-92202000D01*
X154940000Y-59690000D02*
X154940000Y-74930000D01*
X187960000Y-90170000D02*
X189992000Y-88138000D01*
X154940000Y-57785000D02*
X154940000Y-59690000D01*
X155829000Y-56896000D02*
X154940000Y-57785000D01*
X187706000Y-56896000D02*
X155829000Y-56896000D01*
X190119000Y-59309000D02*
X187706000Y-56896000D01*
X190119000Y-88011000D02*
X190119000Y-59309000D01*
X189992000Y-88138000D02*
X190119000Y-88011000D01*
X168275000Y-59690000D02*
X168275000Y-74930000D01*
X187325000Y-85725000D02*
X188595000Y-84455000D01*
X168275000Y-58420000D02*
X168275000Y-59690000D01*
X168910000Y-57785000D02*
X168275000Y-58420000D01*
X187325000Y-57785000D02*
X168910000Y-57785000D01*
X189230000Y-59690000D02*
X187325000Y-57785000D01*
X189230000Y-83820000D02*
X189230000Y-59690000D01*
X188595000Y-84455000D02*
X189230000Y-83820000D01*
X181610000Y-74930000D02*
X181610000Y-76200000D01*
X186690000Y-79375000D02*
X186690000Y-81280000D01*
X185420000Y-78105000D02*
X186690000Y-79375000D01*
X183515000Y-78105000D02*
X185420000Y-78105000D01*
X181610000Y-76200000D02*
X183515000Y-78105000D01*
X181610000Y-59690000D02*
X181610000Y-74930000D01*
D18*
X146685000Y-92710000D02*
X149860000Y-92710000D01*
X149860000Y-92710000D02*
X152400000Y-90170000D01*
X144145000Y-92710000D02*
X149225000Y-87630000D01*
X141605000Y-92710000D02*
X146685000Y-87630000D01*
X168275000Y-88265000D02*
X169545000Y-86995000D01*
X172058838Y-80925162D02*
X174625000Y-80925162D01*
X169545000Y-83439000D02*
X172058838Y-80925162D01*
X169545000Y-86995000D02*
X169545000Y-83439000D01*
X139065000Y-92710000D02*
X139065000Y-93980000D01*
X168275000Y-88265000D02*
X168275000Y-90170000D01*
X158750000Y-88265000D02*
X168275000Y-88265000D01*
X151765000Y-95250000D02*
X158750000Y-88265000D01*
X140335000Y-95250000D02*
X151765000Y-95250000D01*
X139065000Y-93980000D02*
X140335000Y-95250000D01*
X133985000Y-92710000D02*
X135509000Y-91186000D01*
X140716000Y-91186000D02*
X144145000Y-87757000D01*
X138176000Y-91186000D02*
X140716000Y-91186000D01*
X135509000Y-91186000D02*
X138176000Y-91186000D01*
X144145000Y-87757000D02*
X144145000Y-87630000D01*
X133985000Y-92710000D02*
X133985000Y-92583000D01*
X131445000Y-92710000D02*
X133477000Y-90678000D01*
X138684000Y-90551000D02*
X141605000Y-87630000D01*
X133604000Y-90551000D02*
X138684000Y-90551000D01*
X133477000Y-90678000D02*
X133604000Y-90551000D01*
X128905000Y-92710000D02*
X131572000Y-90043000D01*
X136779000Y-89916000D02*
X139065000Y-87630000D01*
X131699000Y-89916000D02*
X136779000Y-89916000D01*
X131572000Y-90043000D02*
X131699000Y-89916000D01*
X126365000Y-92710000D02*
X129667000Y-89408000D01*
X134874000Y-89281000D02*
X136525000Y-87630000D01*
X129794000Y-89281000D02*
X134874000Y-89281000D01*
X129667000Y-89408000D02*
X129794000Y-89281000D01*
X123825000Y-100330000D02*
X121920000Y-98425000D01*
X133985000Y-85725000D02*
X133985000Y-87630000D01*
X133350000Y-85090000D02*
X133985000Y-85725000D01*
X127635000Y-85090000D02*
X133350000Y-85090000D01*
X121920000Y-90805000D02*
X127635000Y-85090000D01*
X121920000Y-98425000D02*
X121920000Y-90805000D01*
X139700000Y-105410000D02*
X129540000Y-105410000D01*
X186690000Y-100965000D02*
X182245000Y-105410000D01*
X182245000Y-105410000D02*
X139700000Y-105410000D01*
X186690000Y-99060000D02*
X186690000Y-100965000D01*
X126365000Y-102235000D02*
X126365000Y-100330000D01*
X129540000Y-105410000D02*
X126365000Y-102235000D01*
X141605000Y-104775000D02*
X131445000Y-104775000D01*
X178435000Y-104775000D02*
X141605000Y-104775000D01*
X181610000Y-101600000D02*
X178435000Y-104775000D01*
X181610000Y-97764602D02*
X181610000Y-101600000D01*
X182854602Y-96520000D02*
X181610000Y-97764602D01*
X184785000Y-96520000D02*
X182854602Y-96520000D01*
X186055000Y-95250000D02*
X184785000Y-96520000D01*
X128905000Y-102235000D02*
X128905000Y-100330000D01*
X131445000Y-104775000D02*
X128905000Y-102235000D01*
X186055000Y-94615000D02*
X186055000Y-95250000D01*
X143510000Y-104140000D02*
X133350000Y-104140000D01*
X185420000Y-91440000D02*
X184785000Y-92075000D01*
X184785000Y-92075000D02*
X182219602Y-92075000D01*
X182219602Y-92075000D02*
X180975000Y-93319602D01*
X180975000Y-93319602D02*
X180975000Y-100965000D01*
X180975000Y-100965000D02*
X177800000Y-104140000D01*
X177800000Y-104140000D02*
X143510000Y-104140000D01*
X185420000Y-90170000D02*
X185420000Y-91440000D01*
X131445000Y-102235000D02*
X131445000Y-100330000D01*
X133350000Y-104140000D02*
X131445000Y-102235000D01*
X145415000Y-103505000D02*
X135255000Y-103505000D01*
X184785000Y-86995000D02*
X184150000Y-87630000D01*
X184150000Y-87630000D02*
X181610000Y-87630000D01*
X181610000Y-87630000D02*
X180340000Y-88900000D01*
X180340000Y-88900000D02*
X180340000Y-100330000D01*
X180340000Y-100330000D02*
X177165000Y-103505000D01*
X177165000Y-103505000D02*
X145415000Y-103505000D01*
X184785000Y-85725000D02*
X184785000Y-86995000D01*
X133985000Y-102235000D02*
X133985000Y-100330000D01*
X135255000Y-103505000D02*
X133985000Y-102235000D01*
X147955000Y-102870000D02*
X137160000Y-102870000D01*
X184150000Y-82550000D02*
X183515000Y-83185000D01*
X183515000Y-83185000D02*
X181610000Y-83185000D01*
X181610000Y-83185000D02*
X179705000Y-85090000D01*
X179705000Y-85090000D02*
X179705000Y-99695000D01*
X179705000Y-99695000D02*
X176530000Y-102870000D01*
X176530000Y-102870000D02*
X147955000Y-102870000D01*
X184150000Y-81280000D02*
X184150000Y-82550000D01*
X136525000Y-102235000D02*
X136525000Y-100330000D01*
X137160000Y-102870000D02*
X136525000Y-102235000D01*
X139065000Y-100330000D02*
X139065000Y-99060000D01*
X154940000Y-95885000D02*
X159385000Y-95885000D01*
X154305000Y-96520000D02*
X154940000Y-95885000D01*
X141605000Y-96520000D02*
X154305000Y-96520000D01*
X139065000Y-99060000D02*
X141605000Y-96520000D01*
X141605000Y-100330000D02*
X141605000Y-99060000D01*
X161925000Y-99695000D02*
X161925000Y-98425000D01*
X161290000Y-100330000D02*
X161925000Y-99695000D01*
X156845000Y-100330000D02*
X161290000Y-100330000D01*
X154305000Y-97790000D02*
X156845000Y-100330000D01*
X142875000Y-97790000D02*
X154305000Y-97790000D01*
X141605000Y-99060000D02*
X142875000Y-97790000D01*
X144145000Y-100330000D02*
X144145000Y-101625398D01*
X163195000Y-95885000D02*
X161925000Y-95885000D01*
X165100000Y-97790000D02*
X163195000Y-95885000D01*
X165100000Y-99695000D02*
X165100000Y-97790000D01*
X162560000Y-102235000D02*
X165100000Y-99695000D01*
X144754602Y-102235000D02*
X162560000Y-102235000D01*
X144145000Y-101625398D02*
X144754602Y-102235000D01*
D20*
G36*
X227343900Y-105423900D02*
X184116954Y-105423900D01*
X187632927Y-101907927D01*
X187642037Y-101894292D01*
X194715921Y-101894292D01*
X195136527Y-102912237D01*
X195914666Y-103691736D01*
X196931875Y-104114118D01*
X198033292Y-104115079D01*
X199051237Y-103694473D01*
X199830736Y-102916334D01*
X200253118Y-101899125D01*
X200253122Y-101894292D01*
X206780921Y-101894292D01*
X207201527Y-102912237D01*
X207979666Y-103691736D01*
X208996875Y-104114118D01*
X210098292Y-104115079D01*
X211116237Y-103694473D01*
X211895736Y-102916334D01*
X212318118Y-101899125D01*
X212318122Y-101894292D01*
X218845921Y-101894292D01*
X219266527Y-102912237D01*
X220044666Y-103691736D01*
X221061875Y-104114118D01*
X222163292Y-104115079D01*
X223181237Y-103694473D01*
X223960736Y-102916334D01*
X224383118Y-101899125D01*
X224384079Y-100797708D01*
X223963473Y-99779763D01*
X223185334Y-99000264D01*
X222168125Y-98577882D01*
X221066708Y-98576921D01*
X220048763Y-98997527D01*
X219269264Y-99775666D01*
X218846882Y-100792875D01*
X218845921Y-101894292D01*
X212318122Y-101894292D01*
X212319079Y-100797708D01*
X211898473Y-99779763D01*
X211120334Y-99000264D01*
X210103125Y-98577882D01*
X209001708Y-98576921D01*
X207983763Y-98997527D01*
X207204264Y-99775666D01*
X206781882Y-100792875D01*
X206780921Y-101894292D01*
X200253122Y-101894292D01*
X200254079Y-100797708D01*
X199833473Y-99779763D01*
X199055334Y-99000264D01*
X198038125Y-98577882D01*
X196936708Y-98576921D01*
X195918763Y-98997527D01*
X195139264Y-99775666D01*
X194716882Y-100792875D01*
X194715921Y-101894292D01*
X187642037Y-101894292D01*
X187921993Y-101475309D01*
X188023500Y-100965000D01*
X188023500Y-100781515D01*
X188055851Y-100813922D01*
X188816425Y-101129740D01*
X189639962Y-101130459D01*
X190401086Y-100815969D01*
X190983922Y-100234149D01*
X191299740Y-99473575D01*
X191300137Y-99019401D01*
X192911769Y-97407769D01*
X193222860Y-96942190D01*
X193332100Y-96393000D01*
X193332100Y-94274292D01*
X194715921Y-94274292D01*
X195136527Y-95292237D01*
X195914666Y-96071736D01*
X196931875Y-96494118D01*
X198033292Y-96495079D01*
X199051237Y-96074473D01*
X199830736Y-95296334D01*
X200253118Y-94279125D01*
X200253122Y-94274292D01*
X206780921Y-94274292D01*
X207201527Y-95292237D01*
X207979666Y-96071736D01*
X208996875Y-96494118D01*
X210098292Y-96495079D01*
X211116237Y-96074473D01*
X211895736Y-95296334D01*
X212318118Y-94279125D01*
X212318122Y-94274292D01*
X218845921Y-94274292D01*
X219266527Y-95292237D01*
X220044666Y-96071736D01*
X221061875Y-96494118D01*
X222163292Y-96495079D01*
X223181237Y-96074473D01*
X223960736Y-95296334D01*
X224383118Y-94279125D01*
X224384079Y-93177708D01*
X223963473Y-92159763D01*
X223185334Y-91380264D01*
X222168125Y-90957882D01*
X221066708Y-90956921D01*
X220048763Y-91377527D01*
X219269264Y-92155666D01*
X218846882Y-93172875D01*
X218845921Y-94274292D01*
X212318122Y-94274292D01*
X212319079Y-93177708D01*
X211898473Y-92159763D01*
X211120334Y-91380264D01*
X210103125Y-90957882D01*
X209001708Y-90956921D01*
X207983763Y-91377527D01*
X207204264Y-92155666D01*
X206781882Y-93172875D01*
X206780921Y-94274292D01*
X200253122Y-94274292D01*
X200254079Y-93177708D01*
X199833473Y-92159763D01*
X199055334Y-91380264D01*
X198038125Y-90957882D01*
X196936708Y-90956921D01*
X195918763Y-91377527D01*
X195139264Y-92155666D01*
X194716882Y-93172875D01*
X194715921Y-94274292D01*
X193332100Y-94274292D01*
X193332100Y-66842292D01*
X194715921Y-66842292D01*
X195136527Y-67860237D01*
X195914666Y-68639736D01*
X196931875Y-69062118D01*
X198033292Y-69063079D01*
X199051237Y-68642473D01*
X199830736Y-67864334D01*
X200253118Y-66847125D01*
X200253122Y-66842292D01*
X206780921Y-66842292D01*
X207201527Y-67860237D01*
X207979666Y-68639736D01*
X208996875Y-69062118D01*
X210098292Y-69063079D01*
X211116237Y-68642473D01*
X211669459Y-68090216D01*
X219836745Y-68090216D01*
X219966068Y-68585167D01*
X220968378Y-69041782D01*
X222069129Y-69080071D01*
X223100744Y-68694206D01*
X223263932Y-68585167D01*
X223393255Y-68090216D01*
X221615000Y-66311961D01*
X219836745Y-68090216D01*
X211669459Y-68090216D01*
X211895736Y-67864334D01*
X212318118Y-66847125D01*
X212318204Y-66748129D01*
X218828929Y-66748129D01*
X219214794Y-67779744D01*
X219323833Y-67942932D01*
X219818784Y-68072255D01*
X221597039Y-66294000D01*
X221632961Y-66294000D01*
X223411216Y-68072255D01*
X223906167Y-67942932D01*
X224362782Y-66940622D01*
X224401071Y-65839871D01*
X224015206Y-64808256D01*
X223906167Y-64645068D01*
X223411216Y-64515745D01*
X221632961Y-66294000D01*
X221597039Y-66294000D01*
X219818784Y-64515745D01*
X219323833Y-64645068D01*
X218867218Y-65647378D01*
X218828929Y-66748129D01*
X212318204Y-66748129D01*
X212319079Y-65745708D01*
X211898473Y-64727763D01*
X211668896Y-64497784D01*
X219836745Y-64497784D01*
X221615000Y-66276039D01*
X223393255Y-64497784D01*
X223263932Y-64002833D01*
X222261622Y-63546218D01*
X221160871Y-63507929D01*
X220129256Y-63893794D01*
X219966068Y-64002833D01*
X219836745Y-64497784D01*
X211668896Y-64497784D01*
X211120334Y-63948264D01*
X210103125Y-63525882D01*
X209001708Y-63524921D01*
X207983763Y-63945527D01*
X207204264Y-64723666D01*
X206781882Y-65740875D01*
X206780921Y-66842292D01*
X200253122Y-66842292D01*
X200254079Y-65745708D01*
X199833473Y-64727763D01*
X199055334Y-63948264D01*
X198038125Y-63525882D01*
X196936708Y-63524921D01*
X195918763Y-63945527D01*
X195139264Y-64723666D01*
X194716882Y-65740875D01*
X194715921Y-66842292D01*
X193332100Y-66842292D01*
X193332100Y-59222292D01*
X194715921Y-59222292D01*
X195136527Y-60240237D01*
X195914666Y-61019736D01*
X196931875Y-61442118D01*
X198033292Y-61443079D01*
X199051237Y-61022473D01*
X199830736Y-60244334D01*
X200253118Y-59227125D01*
X200253122Y-59222292D01*
X206780921Y-59222292D01*
X207201527Y-60240237D01*
X207979666Y-61019736D01*
X208996875Y-61442118D01*
X210098292Y-61443079D01*
X211116237Y-61022473D01*
X211669459Y-60470216D01*
X219836745Y-60470216D01*
X219966068Y-60965167D01*
X220968378Y-61421782D01*
X222069129Y-61460071D01*
X223100744Y-61074206D01*
X223263932Y-60965167D01*
X223393255Y-60470216D01*
X221615000Y-58691961D01*
X219836745Y-60470216D01*
X211669459Y-60470216D01*
X211895736Y-60244334D01*
X212318118Y-59227125D01*
X212318204Y-59128129D01*
X218828929Y-59128129D01*
X219214794Y-60159744D01*
X219323833Y-60322932D01*
X219818784Y-60452255D01*
X221597039Y-58674000D01*
X221632961Y-58674000D01*
X223411216Y-60452255D01*
X223906167Y-60322932D01*
X224362782Y-59320622D01*
X224401071Y-58219871D01*
X224015206Y-57188256D01*
X223906167Y-57025068D01*
X223411216Y-56895745D01*
X221632961Y-58674000D01*
X221597039Y-58674000D01*
X219818784Y-56895745D01*
X219323833Y-57025068D01*
X218867218Y-58027378D01*
X218828929Y-59128129D01*
X212318204Y-59128129D01*
X212319079Y-58125708D01*
X211898473Y-57107763D01*
X211668896Y-56877784D01*
X219836745Y-56877784D01*
X221615000Y-58656039D01*
X223393255Y-56877784D01*
X223263932Y-56382833D01*
X222261622Y-55926218D01*
X221160871Y-55887929D01*
X220129256Y-56273794D01*
X219966068Y-56382833D01*
X219836745Y-56877784D01*
X211668896Y-56877784D01*
X211120334Y-56328264D01*
X210103125Y-55905882D01*
X209001708Y-55904921D01*
X207983763Y-56325527D01*
X207204264Y-57103666D01*
X206781882Y-58120875D01*
X206780921Y-59222292D01*
X200253122Y-59222292D01*
X200254079Y-58125708D01*
X199833473Y-57107763D01*
X199055334Y-56328264D01*
X198038125Y-55905882D01*
X196936708Y-55904921D01*
X195918763Y-56325527D01*
X195139264Y-57103666D01*
X194716882Y-58120875D01*
X194715921Y-59222292D01*
X193332100Y-59222292D01*
X193332100Y-58547000D01*
X193294207Y-58356500D01*
X193222860Y-57997810D01*
X192911769Y-57532231D01*
X189975638Y-54596100D01*
X227343900Y-54596100D01*
X227343900Y-105423900D01*
X227343900Y-105423900D01*
G37*
X227343900Y-105423900D02*
X184116954Y-105423900D01*
X187632927Y-101907927D01*
X187642037Y-101894292D01*
X194715921Y-101894292D01*
X195136527Y-102912237D01*
X195914666Y-103691736D01*
X196931875Y-104114118D01*
X198033292Y-104115079D01*
X199051237Y-103694473D01*
X199830736Y-102916334D01*
X200253118Y-101899125D01*
X200253122Y-101894292D01*
X206780921Y-101894292D01*
X207201527Y-102912237D01*
X207979666Y-103691736D01*
X208996875Y-104114118D01*
X210098292Y-104115079D01*
X211116237Y-103694473D01*
X211895736Y-102916334D01*
X212318118Y-101899125D01*
X212318122Y-101894292D01*
X218845921Y-101894292D01*
X219266527Y-102912237D01*
X220044666Y-103691736D01*
X221061875Y-104114118D01*
X222163292Y-104115079D01*
X223181237Y-103694473D01*
X223960736Y-102916334D01*
X224383118Y-101899125D01*
X224384079Y-100797708D01*
X223963473Y-99779763D01*
X223185334Y-99000264D01*
X222168125Y-98577882D01*
X221066708Y-98576921D01*
X220048763Y-98997527D01*
X219269264Y-99775666D01*
X218846882Y-100792875D01*
X218845921Y-101894292D01*
X212318122Y-101894292D01*
X212319079Y-100797708D01*
X211898473Y-99779763D01*
X211120334Y-99000264D01*
X210103125Y-98577882D01*
X209001708Y-98576921D01*
X207983763Y-98997527D01*
X207204264Y-99775666D01*
X206781882Y-100792875D01*
X206780921Y-101894292D01*
X200253122Y-101894292D01*
X200254079Y-100797708D01*
X199833473Y-99779763D01*
X199055334Y-99000264D01*
X198038125Y-98577882D01*
X196936708Y-98576921D01*
X195918763Y-98997527D01*
X195139264Y-99775666D01*
X194716882Y-100792875D01*
X194715921Y-101894292D01*
X187642037Y-101894292D01*
X187921993Y-101475309D01*
X188023500Y-100965000D01*
X188023500Y-100781515D01*
X188055851Y-100813922D01*
X188816425Y-101129740D01*
X189639962Y-101130459D01*
X190401086Y-100815969D01*
X190983922Y-100234149D01*
X191299740Y-99473575D01*
X191300137Y-99019401D01*
X192911769Y-97407769D01*
X193222860Y-96942190D01*
X193332100Y-96393000D01*
X193332100Y-94274292D01*
X194715921Y-94274292D01*
X195136527Y-95292237D01*
X195914666Y-96071736D01*
X196931875Y-96494118D01*
X198033292Y-96495079D01*
X199051237Y-96074473D01*
X199830736Y-95296334D01*
X200253118Y-94279125D01*
X200253122Y-94274292D01*
X206780921Y-94274292D01*
X207201527Y-95292237D01*
X207979666Y-96071736D01*
X208996875Y-96494118D01*
X210098292Y-96495079D01*
X211116237Y-96074473D01*
X211895736Y-95296334D01*
X212318118Y-94279125D01*
X212318122Y-94274292D01*
X218845921Y-94274292D01*
X219266527Y-95292237D01*
X220044666Y-96071736D01*
X221061875Y-96494118D01*
X222163292Y-96495079D01*
X223181237Y-96074473D01*
X223960736Y-95296334D01*
X224383118Y-94279125D01*
X224384079Y-93177708D01*
X223963473Y-92159763D01*
X223185334Y-91380264D01*
X222168125Y-90957882D01*
X221066708Y-90956921D01*
X220048763Y-91377527D01*
X219269264Y-92155666D01*
X218846882Y-93172875D01*
X218845921Y-94274292D01*
X212318122Y-94274292D01*
X212319079Y-93177708D01*
X211898473Y-92159763D01*
X211120334Y-91380264D01*
X210103125Y-90957882D01*
X209001708Y-90956921D01*
X207983763Y-91377527D01*
X207204264Y-92155666D01*
X206781882Y-93172875D01*
X206780921Y-94274292D01*
X200253122Y-94274292D01*
X200254079Y-93177708D01*
X199833473Y-92159763D01*
X199055334Y-91380264D01*
X198038125Y-90957882D01*
X196936708Y-90956921D01*
X195918763Y-91377527D01*
X195139264Y-92155666D01*
X194716882Y-93172875D01*
X194715921Y-94274292D01*
X193332100Y-94274292D01*
X193332100Y-66842292D01*
X194715921Y-66842292D01*
X195136527Y-67860237D01*
X195914666Y-68639736D01*
X196931875Y-69062118D01*
X198033292Y-69063079D01*
X199051237Y-68642473D01*
X199830736Y-67864334D01*
X200253118Y-66847125D01*
X200253122Y-66842292D01*
X206780921Y-66842292D01*
X207201527Y-67860237D01*
X207979666Y-68639736D01*
X208996875Y-69062118D01*
X210098292Y-69063079D01*
X211116237Y-68642473D01*
X211669459Y-68090216D01*
X219836745Y-68090216D01*
X219966068Y-68585167D01*
X220968378Y-69041782D01*
X222069129Y-69080071D01*
X223100744Y-68694206D01*
X223263932Y-68585167D01*
X223393255Y-68090216D01*
X221615000Y-66311961D01*
X219836745Y-68090216D01*
X211669459Y-68090216D01*
X211895736Y-67864334D01*
X212318118Y-66847125D01*
X212318204Y-66748129D01*
X218828929Y-66748129D01*
X219214794Y-67779744D01*
X219323833Y-67942932D01*
X219818784Y-68072255D01*
X221597039Y-66294000D01*
X221632961Y-66294000D01*
X223411216Y-68072255D01*
X223906167Y-67942932D01*
X224362782Y-66940622D01*
X224401071Y-65839871D01*
X224015206Y-64808256D01*
X223906167Y-64645068D01*
X223411216Y-64515745D01*
X221632961Y-66294000D01*
X221597039Y-66294000D01*
X219818784Y-64515745D01*
X219323833Y-64645068D01*
X218867218Y-65647378D01*
X218828929Y-66748129D01*
X212318204Y-66748129D01*
X212319079Y-65745708D01*
X211898473Y-64727763D01*
X211668896Y-64497784D01*
X219836745Y-64497784D01*
X221615000Y-66276039D01*
X223393255Y-64497784D01*
X223263932Y-64002833D01*
X222261622Y-63546218D01*
X221160871Y-63507929D01*
X220129256Y-63893794D01*
X219966068Y-64002833D01*
X219836745Y-64497784D01*
X211668896Y-64497784D01*
X211120334Y-63948264D01*
X210103125Y-63525882D01*
X209001708Y-63524921D01*
X207983763Y-63945527D01*
X207204264Y-64723666D01*
X206781882Y-65740875D01*
X206780921Y-66842292D01*
X200253122Y-66842292D01*
X200254079Y-65745708D01*
X199833473Y-64727763D01*
X199055334Y-63948264D01*
X198038125Y-63525882D01*
X196936708Y-63524921D01*
X195918763Y-63945527D01*
X195139264Y-64723666D01*
X194716882Y-65740875D01*
X194715921Y-66842292D01*
X193332100Y-66842292D01*
X193332100Y-59222292D01*
X194715921Y-59222292D01*
X195136527Y-60240237D01*
X195914666Y-61019736D01*
X196931875Y-61442118D01*
X198033292Y-61443079D01*
X199051237Y-61022473D01*
X199830736Y-60244334D01*
X200253118Y-59227125D01*
X200253122Y-59222292D01*
X206780921Y-59222292D01*
X207201527Y-60240237D01*
X207979666Y-61019736D01*
X208996875Y-61442118D01*
X210098292Y-61443079D01*
X211116237Y-61022473D01*
X211669459Y-60470216D01*
X219836745Y-60470216D01*
X219966068Y-60965167D01*
X220968378Y-61421782D01*
X222069129Y-61460071D01*
X223100744Y-61074206D01*
X223263932Y-60965167D01*
X223393255Y-60470216D01*
X221615000Y-58691961D01*
X219836745Y-60470216D01*
X211669459Y-60470216D01*
X211895736Y-60244334D01*
X212318118Y-59227125D01*
X212318204Y-59128129D01*
X218828929Y-59128129D01*
X219214794Y-60159744D01*
X219323833Y-60322932D01*
X219818784Y-60452255D01*
X221597039Y-58674000D01*
X221632961Y-58674000D01*
X223411216Y-60452255D01*
X223906167Y-60322932D01*
X224362782Y-59320622D01*
X224401071Y-58219871D01*
X224015206Y-57188256D01*
X223906167Y-57025068D01*
X223411216Y-56895745D01*
X221632961Y-58674000D01*
X221597039Y-58674000D01*
X219818784Y-56895745D01*
X219323833Y-57025068D01*
X218867218Y-58027378D01*
X218828929Y-59128129D01*
X212318204Y-59128129D01*
X212319079Y-58125708D01*
X211898473Y-57107763D01*
X211668896Y-56877784D01*
X219836745Y-56877784D01*
X221615000Y-58656039D01*
X223393255Y-56877784D01*
X223263932Y-56382833D01*
X222261622Y-55926218D01*
X221160871Y-55887929D01*
X220129256Y-56273794D01*
X219966068Y-56382833D01*
X219836745Y-56877784D01*
X211668896Y-56877784D01*
X211120334Y-56328264D01*
X210103125Y-55905882D01*
X209001708Y-55904921D01*
X207983763Y-56325527D01*
X207204264Y-57103666D01*
X206781882Y-58120875D01*
X206780921Y-59222292D01*
X200253122Y-59222292D01*
X200254079Y-58125708D01*
X199833473Y-57107763D01*
X199055334Y-56328264D01*
X198038125Y-55905882D01*
X196936708Y-55904921D01*
X195918763Y-56325527D01*
X195139264Y-57103666D01*
X194716882Y-58120875D01*
X194715921Y-59222292D01*
X193332100Y-59222292D01*
X193332100Y-58547000D01*
X193294207Y-58356500D01*
X193222860Y-57997810D01*
X192911769Y-57532231D01*
X189975638Y-54596100D01*
X227343900Y-54596100D01*
X227343900Y-105423900D01*
G36*
X175427885Y-76576320D02*
X176141798Y-76872762D01*
X176914811Y-76873437D01*
X177629240Y-76578241D01*
X177799819Y-76407960D01*
X177967885Y-76576320D01*
X178681798Y-76872762D01*
X179454811Y-76873437D01*
X180169240Y-76578241D01*
X180236734Y-76510864D01*
X180284140Y-76749189D01*
X180595231Y-77214769D01*
X182500231Y-79119769D01*
X182965811Y-79430860D01*
X183126871Y-79462897D01*
X182978914Y-79524031D01*
X182849569Y-79653150D01*
X182840316Y-79565009D01*
X182090365Y-79224734D01*
X181267284Y-79197354D01*
X180496378Y-79487037D01*
X180379684Y-79565009D01*
X180335343Y-79987383D01*
X181610000Y-81262039D01*
X181624142Y-81247897D01*
X181642103Y-81265858D01*
X181627961Y-81280000D01*
X181642103Y-81294142D01*
X181624142Y-81312103D01*
X181610000Y-81297961D01*
X180335343Y-82572617D01*
X180335456Y-82573690D01*
X178762073Y-84147073D01*
X178473007Y-84579692D01*
X178371500Y-85090000D01*
X178371500Y-99142646D01*
X175977646Y-101536500D01*
X170135125Y-101536500D01*
X170455210Y-100765649D01*
X170455967Y-99898157D01*
X170124692Y-99096409D01*
X169511818Y-98482464D01*
X168710649Y-98149790D01*
X167843157Y-98149033D01*
X167041409Y-98480308D01*
X166433500Y-99087157D01*
X166433500Y-97790000D01*
X166331993Y-97279692D01*
X166042927Y-96847073D01*
X164137927Y-94942073D01*
X163719076Y-94662206D01*
X163672367Y-94615416D01*
X163732724Y-94555165D01*
X164058229Y-93771261D01*
X164058970Y-92922463D01*
X163734833Y-92137991D01*
X163135165Y-91537276D01*
X162351261Y-91211771D01*
X161502463Y-91211030D01*
X160717991Y-91535167D01*
X160655758Y-91597291D01*
X160653372Y-91577630D01*
X159880480Y-91226778D01*
X159032155Y-91198406D01*
X158237548Y-91496834D01*
X158116628Y-91577630D01*
X158064562Y-92006601D01*
X159385000Y-93327039D01*
X159399142Y-93312897D01*
X159417103Y-93330858D01*
X159402961Y-93345000D01*
X159417103Y-93359142D01*
X159399142Y-93377103D01*
X159385000Y-93362961D01*
X159370858Y-93377103D01*
X159352897Y-93359142D01*
X159367039Y-93345000D01*
X158046601Y-92024562D01*
X157617630Y-92076628D01*
X157266778Y-92849520D01*
X157238406Y-93697845D01*
X157536834Y-94492452D01*
X157576289Y-94551500D01*
X154940000Y-94551500D01*
X154429692Y-94653007D01*
X153997073Y-94942073D01*
X153752646Y-95186500D01*
X153714354Y-95186500D01*
X159302354Y-89598500D01*
X166151200Y-89598500D01*
X166094790Y-89734351D01*
X166094033Y-90601843D01*
X166425308Y-91403591D01*
X167038182Y-92017536D01*
X167839351Y-92350210D01*
X168706843Y-92350967D01*
X169508591Y-92019692D01*
X170122536Y-91406818D01*
X170455210Y-90605649D01*
X170455967Y-89738157D01*
X170124692Y-88936409D01*
X169807346Y-88618508D01*
X170217917Y-88207937D01*
X172160024Y-88207937D01*
X172405229Y-88801859D01*
X173751662Y-89417117D01*
X175231053Y-89470284D01*
X176618178Y-88953265D01*
X176844771Y-88801859D01*
X177089976Y-88207937D01*
X174625000Y-85742961D01*
X172160024Y-88207937D01*
X170217917Y-88207937D01*
X170487927Y-87937927D01*
X170776993Y-87505309D01*
X170878500Y-86995000D01*
X170878500Y-86331053D01*
X170879716Y-86331053D01*
X171396735Y-87718178D01*
X171548141Y-87944771D01*
X172142063Y-88189976D01*
X174607039Y-85725000D01*
X174642961Y-85725000D01*
X177107937Y-88189976D01*
X177701859Y-87944771D01*
X178317117Y-86598338D01*
X178370284Y-85118947D01*
X177853265Y-83731822D01*
X177701859Y-83505229D01*
X177107937Y-83260024D01*
X174642961Y-85725000D01*
X174607039Y-85725000D01*
X172142063Y-83260024D01*
X171548141Y-83505229D01*
X170932883Y-84851662D01*
X170879716Y-86331053D01*
X170878500Y-86331053D01*
X170878500Y-83991354D01*
X172611192Y-82258662D01*
X172941438Y-82258662D01*
X173030687Y-82348067D01*
X172631822Y-82496735D01*
X172405229Y-82648141D01*
X172160024Y-83242063D01*
X174625000Y-85707039D01*
X177089976Y-83242063D01*
X176844771Y-82648141D01*
X176209713Y-82357949D01*
X176432724Y-82135327D01*
X176645578Y-81622716D01*
X179527354Y-81622716D01*
X179817037Y-82393622D01*
X179895009Y-82510316D01*
X180317383Y-82554657D01*
X181592039Y-81280000D01*
X180317383Y-80005343D01*
X179895009Y-80049684D01*
X179554734Y-80799635D01*
X179527354Y-81622716D01*
X176645578Y-81622716D01*
X176758229Y-81351423D01*
X176758970Y-80502625D01*
X176434833Y-79718153D01*
X175835165Y-79117438D01*
X175051261Y-78791933D01*
X174202463Y-78791192D01*
X173417991Y-79115329D01*
X172940826Y-79591662D01*
X172058838Y-79591662D01*
X171548530Y-79693169D01*
X171115911Y-79982235D01*
X168602073Y-82496073D01*
X168313007Y-82928692D01*
X168211500Y-83439000D01*
X168211500Y-86442646D01*
X167722646Y-86931500D01*
X158750000Y-86931500D01*
X158239692Y-87033007D01*
X157807073Y-87322073D01*
X154580260Y-90548886D01*
X154580967Y-89738157D01*
X154249692Y-88936409D01*
X153636818Y-88322464D01*
X152835649Y-87989790D01*
X151968157Y-87989033D01*
X151265607Y-88279320D01*
X151358229Y-88056261D01*
X151358970Y-87207463D01*
X151034833Y-86422991D01*
X150435165Y-85822276D01*
X149651261Y-85496771D01*
X148802463Y-85496030D01*
X148017991Y-85820167D01*
X147955416Y-85882633D01*
X147895165Y-85822276D01*
X147111261Y-85496771D01*
X146262463Y-85496030D01*
X145477991Y-85820167D01*
X145415416Y-85882633D01*
X145355165Y-85822276D01*
X144571261Y-85496771D01*
X143722463Y-85496030D01*
X142937991Y-85820167D01*
X142875416Y-85882633D01*
X142815165Y-85822276D01*
X142031261Y-85496771D01*
X141182463Y-85496030D01*
X140397991Y-85820167D01*
X140335416Y-85882633D01*
X140275165Y-85822276D01*
X139491261Y-85496771D01*
X138642463Y-85496030D01*
X137857991Y-85820167D01*
X137795416Y-85882633D01*
X137735165Y-85822276D01*
X136951261Y-85496771D01*
X136102463Y-85496030D01*
X135318500Y-85819957D01*
X135318500Y-85725000D01*
X135216993Y-85214692D01*
X134927927Y-84782073D01*
X134292927Y-84147073D01*
X133860308Y-83858007D01*
X133350000Y-83756500D01*
X127635000Y-83756500D01*
X127124692Y-83858007D01*
X126692073Y-84147073D01*
X121906100Y-88933046D01*
X121906100Y-76394217D01*
X122087885Y-76576320D01*
X122801798Y-76872762D01*
X123574811Y-76873437D01*
X124289240Y-76578241D01*
X124459819Y-76407960D01*
X124627885Y-76576320D01*
X125341798Y-76872762D01*
X126114811Y-76873437D01*
X126829240Y-76578241D01*
X126999819Y-76407960D01*
X127167885Y-76576320D01*
X127881798Y-76872762D01*
X128654811Y-76873437D01*
X129369240Y-76578241D01*
X129539819Y-76407960D01*
X129707885Y-76576320D01*
X130128236Y-76750865D01*
X130111500Y-76835000D01*
X130111500Y-78326438D01*
X129637276Y-78799835D01*
X129311771Y-79583739D01*
X129311030Y-80432537D01*
X129635167Y-81217009D01*
X130234835Y-81817724D01*
X131018739Y-82143229D01*
X131867537Y-82143970D01*
X132652009Y-81819833D01*
X132714584Y-81757367D01*
X132774835Y-81817724D01*
X133558739Y-82143229D01*
X134407537Y-82143970D01*
X135192009Y-81819833D01*
X135254584Y-81757367D01*
X135314835Y-81817724D01*
X136098739Y-82143229D01*
X136947537Y-82143970D01*
X137732009Y-81819833D01*
X137794584Y-81757367D01*
X137854835Y-81817724D01*
X138638739Y-82143229D01*
X139487537Y-82143970D01*
X140272009Y-81819833D01*
X140334584Y-81757367D01*
X140394835Y-81817724D01*
X141178739Y-82143229D01*
X142027537Y-82143970D01*
X142812009Y-81819833D01*
X142874584Y-81757367D01*
X142934835Y-81817724D01*
X143718739Y-82143229D01*
X144567537Y-82143970D01*
X145352009Y-81819833D01*
X145414584Y-81757367D01*
X145474835Y-81817724D01*
X146258739Y-82143229D01*
X147107537Y-82143970D01*
X147892009Y-81819833D01*
X147954584Y-81757367D01*
X148014835Y-81817724D01*
X148798739Y-82143229D01*
X149647537Y-82143970D01*
X150432009Y-81819833D01*
X150909174Y-81343500D01*
X158877000Y-81343500D01*
X159387308Y-81241993D01*
X159819927Y-80952927D01*
X162613927Y-78158927D01*
X162902993Y-77726308D01*
X163004500Y-77216000D01*
X163004500Y-76872935D01*
X163579811Y-76873437D01*
X164294240Y-76578241D01*
X164464819Y-76407960D01*
X164632885Y-76576320D01*
X165346798Y-76872762D01*
X166119811Y-76873437D01*
X166834240Y-76578241D01*
X167004819Y-76407960D01*
X167172885Y-76576320D01*
X167886798Y-76872762D01*
X168659811Y-76873437D01*
X169374240Y-76578241D01*
X169544819Y-76407960D01*
X169712885Y-76576320D01*
X170426798Y-76872762D01*
X171199811Y-76873437D01*
X171914240Y-76578241D01*
X172084819Y-76407960D01*
X172252885Y-76576320D01*
X172966798Y-76872762D01*
X173739811Y-76873437D01*
X174454240Y-76578241D01*
X174942873Y-76090460D01*
X175427885Y-76576320D01*
X175427885Y-76576320D01*
G37*
X175427885Y-76576320D02*
X176141798Y-76872762D01*
X176914811Y-76873437D01*
X177629240Y-76578241D01*
X177799819Y-76407960D01*
X177967885Y-76576320D01*
X178681798Y-76872762D01*
X179454811Y-76873437D01*
X180169240Y-76578241D01*
X180236734Y-76510864D01*
X180284140Y-76749189D01*
X180595231Y-77214769D01*
X182500231Y-79119769D01*
X182965811Y-79430860D01*
X183126871Y-79462897D01*
X182978914Y-79524031D01*
X182849569Y-79653150D01*
X182840316Y-79565009D01*
X182090365Y-79224734D01*
X181267284Y-79197354D01*
X180496378Y-79487037D01*
X180379684Y-79565009D01*
X180335343Y-79987383D01*
X181610000Y-81262039D01*
X181624142Y-81247897D01*
X181642103Y-81265858D01*
X181627961Y-81280000D01*
X181642103Y-81294142D01*
X181624142Y-81312103D01*
X181610000Y-81297961D01*
X180335343Y-82572617D01*
X180335456Y-82573690D01*
X178762073Y-84147073D01*
X178473007Y-84579692D01*
X178371500Y-85090000D01*
X178371500Y-99142646D01*
X175977646Y-101536500D01*
X170135125Y-101536500D01*
X170455210Y-100765649D01*
X170455967Y-99898157D01*
X170124692Y-99096409D01*
X169511818Y-98482464D01*
X168710649Y-98149790D01*
X167843157Y-98149033D01*
X167041409Y-98480308D01*
X166433500Y-99087157D01*
X166433500Y-97790000D01*
X166331993Y-97279692D01*
X166042927Y-96847073D01*
X164137927Y-94942073D01*
X163719076Y-94662206D01*
X163672367Y-94615416D01*
X163732724Y-94555165D01*
X164058229Y-93771261D01*
X164058970Y-92922463D01*
X163734833Y-92137991D01*
X163135165Y-91537276D01*
X162351261Y-91211771D01*
X161502463Y-91211030D01*
X160717991Y-91535167D01*
X160655758Y-91597291D01*
X160653372Y-91577630D01*
X159880480Y-91226778D01*
X159032155Y-91198406D01*
X158237548Y-91496834D01*
X158116628Y-91577630D01*
X158064562Y-92006601D01*
X159385000Y-93327039D01*
X159399142Y-93312897D01*
X159417103Y-93330858D01*
X159402961Y-93345000D01*
X159417103Y-93359142D01*
X159399142Y-93377103D01*
X159385000Y-93362961D01*
X159370858Y-93377103D01*
X159352897Y-93359142D01*
X159367039Y-93345000D01*
X158046601Y-92024562D01*
X157617630Y-92076628D01*
X157266778Y-92849520D01*
X157238406Y-93697845D01*
X157536834Y-94492452D01*
X157576289Y-94551500D01*
X154940000Y-94551500D01*
X154429692Y-94653007D01*
X153997073Y-94942073D01*
X153752646Y-95186500D01*
X153714354Y-95186500D01*
X159302354Y-89598500D01*
X166151200Y-89598500D01*
X166094790Y-89734351D01*
X166094033Y-90601843D01*
X166425308Y-91403591D01*
X167038182Y-92017536D01*
X167839351Y-92350210D01*
X168706843Y-92350967D01*
X169508591Y-92019692D01*
X170122536Y-91406818D01*
X170455210Y-90605649D01*
X170455967Y-89738157D01*
X170124692Y-88936409D01*
X169807346Y-88618508D01*
X170217917Y-88207937D01*
X172160024Y-88207937D01*
X172405229Y-88801859D01*
X173751662Y-89417117D01*
X175231053Y-89470284D01*
X176618178Y-88953265D01*
X176844771Y-88801859D01*
X177089976Y-88207937D01*
X174625000Y-85742961D01*
X172160024Y-88207937D01*
X170217917Y-88207937D01*
X170487927Y-87937927D01*
X170776993Y-87505309D01*
X170878500Y-86995000D01*
X170878500Y-86331053D01*
X170879716Y-86331053D01*
X171396735Y-87718178D01*
X171548141Y-87944771D01*
X172142063Y-88189976D01*
X174607039Y-85725000D01*
X174642961Y-85725000D01*
X177107937Y-88189976D01*
X177701859Y-87944771D01*
X178317117Y-86598338D01*
X178370284Y-85118947D01*
X177853265Y-83731822D01*
X177701859Y-83505229D01*
X177107937Y-83260024D01*
X174642961Y-85725000D01*
X174607039Y-85725000D01*
X172142063Y-83260024D01*
X171548141Y-83505229D01*
X170932883Y-84851662D01*
X170879716Y-86331053D01*
X170878500Y-86331053D01*
X170878500Y-83991354D01*
X172611192Y-82258662D01*
X172941438Y-82258662D01*
X173030687Y-82348067D01*
X172631822Y-82496735D01*
X172405229Y-82648141D01*
X172160024Y-83242063D01*
X174625000Y-85707039D01*
X177089976Y-83242063D01*
X176844771Y-82648141D01*
X176209713Y-82357949D01*
X176432724Y-82135327D01*
X176645578Y-81622716D01*
X179527354Y-81622716D01*
X179817037Y-82393622D01*
X179895009Y-82510316D01*
X180317383Y-82554657D01*
X181592039Y-81280000D01*
X180317383Y-80005343D01*
X179895009Y-80049684D01*
X179554734Y-80799635D01*
X179527354Y-81622716D01*
X176645578Y-81622716D01*
X176758229Y-81351423D01*
X176758970Y-80502625D01*
X176434833Y-79718153D01*
X175835165Y-79117438D01*
X175051261Y-78791933D01*
X174202463Y-78791192D01*
X173417991Y-79115329D01*
X172940826Y-79591662D01*
X172058838Y-79591662D01*
X171548530Y-79693169D01*
X171115911Y-79982235D01*
X168602073Y-82496073D01*
X168313007Y-82928692D01*
X168211500Y-83439000D01*
X168211500Y-86442646D01*
X167722646Y-86931500D01*
X158750000Y-86931500D01*
X158239692Y-87033007D01*
X157807073Y-87322073D01*
X154580260Y-90548886D01*
X154580967Y-89738157D01*
X154249692Y-88936409D01*
X153636818Y-88322464D01*
X152835649Y-87989790D01*
X151968157Y-87989033D01*
X151265607Y-88279320D01*
X151358229Y-88056261D01*
X151358970Y-87207463D01*
X151034833Y-86422991D01*
X150435165Y-85822276D01*
X149651261Y-85496771D01*
X148802463Y-85496030D01*
X148017991Y-85820167D01*
X147955416Y-85882633D01*
X147895165Y-85822276D01*
X147111261Y-85496771D01*
X146262463Y-85496030D01*
X145477991Y-85820167D01*
X145415416Y-85882633D01*
X145355165Y-85822276D01*
X144571261Y-85496771D01*
X143722463Y-85496030D01*
X142937991Y-85820167D01*
X142875416Y-85882633D01*
X142815165Y-85822276D01*
X142031261Y-85496771D01*
X141182463Y-85496030D01*
X140397991Y-85820167D01*
X140335416Y-85882633D01*
X140275165Y-85822276D01*
X139491261Y-85496771D01*
X138642463Y-85496030D01*
X137857991Y-85820167D01*
X137795416Y-85882633D01*
X137735165Y-85822276D01*
X136951261Y-85496771D01*
X136102463Y-85496030D01*
X135318500Y-85819957D01*
X135318500Y-85725000D01*
X135216993Y-85214692D01*
X134927927Y-84782073D01*
X134292927Y-84147073D01*
X133860308Y-83858007D01*
X133350000Y-83756500D01*
X127635000Y-83756500D01*
X127124692Y-83858007D01*
X126692073Y-84147073D01*
X121906100Y-88933046D01*
X121906100Y-76394217D01*
X122087885Y-76576320D01*
X122801798Y-76872762D01*
X123574811Y-76873437D01*
X124289240Y-76578241D01*
X124459819Y-76407960D01*
X124627885Y-76576320D01*
X125341798Y-76872762D01*
X126114811Y-76873437D01*
X126829240Y-76578241D01*
X126999819Y-76407960D01*
X127167885Y-76576320D01*
X127881798Y-76872762D01*
X128654811Y-76873437D01*
X129369240Y-76578241D01*
X129539819Y-76407960D01*
X129707885Y-76576320D01*
X130128236Y-76750865D01*
X130111500Y-76835000D01*
X130111500Y-78326438D01*
X129637276Y-78799835D01*
X129311771Y-79583739D01*
X129311030Y-80432537D01*
X129635167Y-81217009D01*
X130234835Y-81817724D01*
X131018739Y-82143229D01*
X131867537Y-82143970D01*
X132652009Y-81819833D01*
X132714584Y-81757367D01*
X132774835Y-81817724D01*
X133558739Y-82143229D01*
X134407537Y-82143970D01*
X135192009Y-81819833D01*
X135254584Y-81757367D01*
X135314835Y-81817724D01*
X136098739Y-82143229D01*
X136947537Y-82143970D01*
X137732009Y-81819833D01*
X137794584Y-81757367D01*
X137854835Y-81817724D01*
X138638739Y-82143229D01*
X139487537Y-82143970D01*
X140272009Y-81819833D01*
X140334584Y-81757367D01*
X140394835Y-81817724D01*
X141178739Y-82143229D01*
X142027537Y-82143970D01*
X142812009Y-81819833D01*
X142874584Y-81757367D01*
X142934835Y-81817724D01*
X143718739Y-82143229D01*
X144567537Y-82143970D01*
X145352009Y-81819833D01*
X145414584Y-81757367D01*
X145474835Y-81817724D01*
X146258739Y-82143229D01*
X147107537Y-82143970D01*
X147892009Y-81819833D01*
X147954584Y-81757367D01*
X148014835Y-81817724D01*
X148798739Y-82143229D01*
X149647537Y-82143970D01*
X150432009Y-81819833D01*
X150909174Y-81343500D01*
X158877000Y-81343500D01*
X159387308Y-81241993D01*
X159819927Y-80952927D01*
X162613927Y-78158927D01*
X162902993Y-77726308D01*
X163004500Y-77216000D01*
X163004500Y-76872935D01*
X163579811Y-76873437D01*
X164294240Y-76578241D01*
X164464819Y-76407960D01*
X164632885Y-76576320D01*
X165346798Y-76872762D01*
X166119811Y-76873437D01*
X166834240Y-76578241D01*
X167004819Y-76407960D01*
X167172885Y-76576320D01*
X167886798Y-76872762D01*
X168659811Y-76873437D01*
X169374240Y-76578241D01*
X169544819Y-76407960D01*
X169712885Y-76576320D01*
X170426798Y-76872762D01*
X171199811Y-76873437D01*
X171914240Y-76578241D01*
X172084819Y-76407960D01*
X172252885Y-76576320D01*
X172966798Y-76872762D01*
X173739811Y-76873437D01*
X174454240Y-76578241D01*
X174942873Y-76090460D01*
X175427885Y-76576320D01*
G36*
X184182103Y-99045858D02*
X184167961Y-99060000D01*
X184182103Y-99074142D01*
X184164142Y-99092103D01*
X184150000Y-99077961D01*
X184135858Y-99092103D01*
X184117897Y-99074142D01*
X184132039Y-99060000D01*
X184117897Y-99045858D01*
X184135858Y-99027897D01*
X184150000Y-99042039D01*
X184164142Y-99027897D01*
X184182103Y-99045858D01*
X184182103Y-99045858D01*
G37*
X184182103Y-99045858D02*
X184167961Y-99060000D01*
X184182103Y-99074142D01*
X184164142Y-99092103D01*
X184150000Y-99077961D01*
X184135858Y-99092103D01*
X184117897Y-99074142D01*
X184132039Y-99060000D01*
X184117897Y-99045858D01*
X184135858Y-99027897D01*
X184150000Y-99042039D01*
X184164142Y-99027897D01*
X184182103Y-99045858D01*
G36*
X183547103Y-94600858D02*
X183532961Y-94615000D01*
X183547103Y-94629142D01*
X183529142Y-94647103D01*
X183515000Y-94632961D01*
X183500858Y-94647103D01*
X183482897Y-94629142D01*
X183497039Y-94615000D01*
X183482897Y-94600858D01*
X183500858Y-94582897D01*
X183515000Y-94597039D01*
X183529142Y-94582897D01*
X183547103Y-94600858D01*
X183547103Y-94600858D01*
G37*
X183547103Y-94600858D02*
X183532961Y-94615000D01*
X183547103Y-94629142D01*
X183529142Y-94647103D01*
X183515000Y-94632961D01*
X183500858Y-94647103D01*
X183482897Y-94629142D01*
X183497039Y-94615000D01*
X183482897Y-94600858D01*
X183500858Y-94582897D01*
X183515000Y-94597039D01*
X183529142Y-94582897D01*
X183547103Y-94600858D01*
G36*
X123857103Y-92695858D02*
X123842961Y-92710000D01*
X123857103Y-92724142D01*
X123839142Y-92742103D01*
X123825000Y-92727961D01*
X123810858Y-92742103D01*
X123792897Y-92724142D01*
X123807039Y-92710000D01*
X123792897Y-92695858D01*
X123810858Y-92677897D01*
X123825000Y-92692039D01*
X123839142Y-92677897D01*
X123857103Y-92695858D01*
X123857103Y-92695858D01*
G37*
X123857103Y-92695858D02*
X123842961Y-92710000D01*
X123857103Y-92724142D01*
X123839142Y-92742103D01*
X123825000Y-92727961D01*
X123810858Y-92742103D01*
X123792897Y-92724142D01*
X123807039Y-92710000D01*
X123792897Y-92695858D01*
X123810858Y-92677897D01*
X123825000Y-92692039D01*
X123839142Y-92677897D01*
X123857103Y-92695858D01*
G36*
X182912103Y-90155858D02*
X182897961Y-90170000D01*
X182912103Y-90184142D01*
X182894142Y-90202103D01*
X182880000Y-90187961D01*
X182865858Y-90202103D01*
X182847897Y-90184142D01*
X182862039Y-90170000D01*
X182847897Y-90155858D01*
X182865858Y-90137897D01*
X182880000Y-90152039D01*
X182894142Y-90137897D01*
X182912103Y-90155858D01*
X182912103Y-90155858D01*
G37*
X182912103Y-90155858D02*
X182897961Y-90170000D01*
X182912103Y-90184142D01*
X182894142Y-90202103D01*
X182880000Y-90187961D01*
X182865858Y-90202103D01*
X182847897Y-90184142D01*
X182862039Y-90170000D01*
X182847897Y-90155858D01*
X182865858Y-90137897D01*
X182880000Y-90152039D01*
X182894142Y-90137897D01*
X182912103Y-90155858D01*
G36*
X182277103Y-85710858D02*
X182262961Y-85725000D01*
X182277103Y-85739142D01*
X182259142Y-85757103D01*
X182245000Y-85742961D01*
X182230858Y-85757103D01*
X182212897Y-85739142D01*
X182227039Y-85725000D01*
X182212897Y-85710858D01*
X182230858Y-85692897D01*
X182245000Y-85707039D01*
X182259142Y-85692897D01*
X182277103Y-85710858D01*
X182277103Y-85710858D01*
G37*
X182277103Y-85710858D02*
X182262961Y-85725000D01*
X182277103Y-85739142D01*
X182259142Y-85757103D01*
X182245000Y-85742961D01*
X182230858Y-85757103D01*
X182212897Y-85739142D01*
X182227039Y-85725000D01*
X182212897Y-85710858D01*
X182230858Y-85692897D01*
X182245000Y-85707039D01*
X182259142Y-85692897D01*
X182277103Y-85710858D01*
M02*
