M48
INCH,TZ
T1C0.020
T2C0.030
T3C0.032
T4C0.039
T5C0.040
T6C0.070
T7C0.125
%
G90
G05
T1
X48500Y-24500
X48500Y-28500
X49500Y-25000
X49500Y-28000
X51500Y-25500
X51500Y-27500
X52500Y-26000
X52500Y-27000
X53750Y-24500
X53750Y-28500
X54750Y-25000
X54750Y-28000
X56750Y-25500
X56750Y-27500
X57750Y-26000
X57750Y-27000
X59000Y-24500
X59000Y-28500
X60000Y-25000
X60000Y-28000
X62000Y-25500
X62000Y-27500
X63000Y-26000
X63000Y-27000
X64250Y-24500
X64250Y-28500
X65250Y-25000
X65250Y-28000
X67250Y-25500
X67250Y-27500
X68250Y-26000
X68250Y-27000
X69500Y-24500
X69500Y-28500
X70500Y-25000
X70500Y-28000
X72500Y-25500
X72500Y-27500
X73500Y-26000
X73500Y-27000
T2
X48500Y-23500
X48500Y-29500
X49500Y-23500
X49500Y-29500
X50500Y-23500
X50500Y-29500
X51500Y-23500
X51500Y-29500
X52500Y-23500
X52500Y-29500
X53750Y-23500
X53750Y-29500
X54750Y-23500
X54750Y-29500
X55750Y-23500
X55750Y-29500
X56750Y-23500
X56750Y-29500
X57750Y-23500
X57750Y-29500
X59000Y-23500
X59000Y-29500
X60000Y-23500
X60000Y-29500
X61000Y-23500
X61000Y-29500
X62000Y-23500
X62000Y-29500
X63000Y-23500
X63000Y-29500
X64250Y-23500
X64250Y-29500
X65250Y-23500
X65250Y-29500
X66250Y-23500
X66250Y-29500
X67250Y-23500
X67250Y-29500
X68250Y-23500
X68250Y-29500
X69500Y-23500
X69500Y-29500
X70500Y-23500
X70500Y-29500
X71500Y-23500
X71500Y-29500
X72500Y-23500
X72500Y-29500
X73500Y-23500
X73500Y-29500
T3
X71500Y-32000
X71750Y-33750
X72000Y-35500
X72250Y-37250
X72500Y-32000
X72500Y-39000
X72750Y-33750
X73000Y-35500
X73250Y-37250
X73500Y-32000
X73500Y-39000
X73750Y-33750
X74000Y-35500
X74250Y-37250
X74500Y-39000
T4
X60000Y-35500
X60000Y-39500
X66250Y-35500
X66250Y-39500
T5
X48750Y-36500
X48750Y-39500
X49750Y-36500
X49750Y-39500
X50750Y-36500
X50750Y-39500
X51750Y-31500
X51750Y-34500
X51750Y-36500
X51750Y-39500
X52750Y-31500
X52750Y-34500
X52750Y-36500
X52750Y-39500
X53750Y-31500
X53750Y-34500
X53750Y-36500
X53750Y-39500
X54750Y-31500
X54750Y-34500
X54750Y-36500
X54750Y-39500
X55750Y-31500
X55750Y-34500
X55750Y-36500
X55750Y-39500
X56750Y-31500
X56750Y-34500
X56750Y-36500
X56750Y-39500
X57750Y-31500
X57750Y-34500
X57750Y-36500
X57750Y-39500
X58750Y-31500
X58750Y-34500
X62750Y-36750
X62750Y-37750
X62750Y-38750
X63750Y-36750
X63750Y-37750
X63750Y-38750
X68750Y-31860
T6
X77750Y-23100
X77750Y-26100
X77750Y-36900
X77750Y-39900
X82500Y-23100
X82500Y-26100
X82500Y-36900
X82500Y-39900
X87250Y-23100
X87250Y-26100
X87250Y-36900
X87250Y-39900
T7
X68750Y-33750
T0
M30
